<svg data-fov2="1" id="container" width="2470.5" xmlns="http://www.w3.org/2000/svg" height="1560" viewBox="-90 -50 2470.5 1560" role="graphics-document document" aria-roledescription="sequence"><g><rect x="2140.5" y="1394" fill="#eaeaea" stroke="#666" width="150" height="65" name="DB" rx="3" ry="3" class="actor actor-bottom"></rect><text x="2215.5" y="1426.5" dominant-baseline="central" alignment-baseline="central" class="actor actor-box" style="text-anchor: middle; font-size: 19.2px; font-weight: 400;"><tspan x="2215.5" dy="0">Base de données</tspan></text></g><g><rect x="1881.5" y="1394" fill="#eaeaea" stroke="#666" width="209" height="65" name="PG" rx="3" ry="3" class="actor actor-bottom"></rect><text x="1986" y="1426.5" dominant-baseline="central" alignment-baseline="central" class="actor actor-box" style="text-anchor: middle; font-size: 19.2px; font-weight: 400;"><tspan x="1986" dy="0">password_reset_complete</tspan></text></g><g><rect x="1635.5" y="1394" fill="#eaeaea" stroke="#666" width="196" height="65" name="PC" rx="3" ry="3" class="actor actor-bottom"></rect><text x="1733.5" y="1426.5" dominant-baseline="central" alignment-baseline="central" class="actor actor-box" style="text-anchor: middle; font-size: 19.2px; font-weight: 400;"><tspan x="1733.5" dy="0">password_reset_confirm</tspan></text></g><g><rect x="1407.5" y="1394" fill="#eaeaea" stroke="#666" width="178" height="65" name="DN" rx="3" ry="3" class="actor actor-bottom"></rect><text x="1496.5" y="1426.5" dominant-baseline="central" alignment-baseline="central" class="actor actor-box" style="text-anchor: middle; font-size: 19.2px; font-weight: 400;"><tspan x="1496.5" dy="0">password_reset_done</tspan></text></g><g><rect x="1168.5" y="1394" fill="#eaeaea" stroke="#666" width="189" height="65" name="MAIL" rx="3" ry="3" class="actor actor-bottom"></rect><text x="1263" y="1426.5" dominant-baseline="central" alignment-baseline="central" class="actor actor-box" style="text-anchor: middle; font-size: 19.2px; font-weight: 400;"><tspan x="1263" dy="0">Service d'e-mail (SMTP)</tspan></text></g><g><rect x="363.5" y="1394" fill="#eaeaea" stroke="#666" width="289" height="65" name="PR" rx="3" ry="3" class="actor actor-bottom"></rect><text x="508" y="1426.5" dominant-baseline="central" alignment-baseline="central" class="actor actor-box" style="text-anchor: middle; font-size: 19.2px; font-weight: 400;"><tspan x="508" dy="0">password_reset (PasswordResetView)</tspan></text></g><g></g><g><line id="actor6" x1="2215.5" y1="65" x2="2215.5" y2="1394" class="actor-line 200" stroke-width="0.5px" stroke="#999" name="DB" data-et="life-line" data-id="DB"></line><g id="root-6" data-et="participant" data-type="participant" data-id="DB"><rect x="2140.5" y="0" fill="#eaeaea" stroke="#666" width="150" height="65" name="DB" rx="3" ry="3" class="actor actor-top"></rect><text x="2215.5" y="32.5" dominant-baseline="central" alignment-baseline="central" class="actor actor-box" style="text-anchor: middle; font-size: 19.2px; font-weight: 400;"><tspan x="2215.5" dy="0">Base de données</tspan></text></g></g><g><line id="actor5" x1="1986" y1="65" x2="1986" y2="1394" class="actor-line 200" stroke-width="0.5px" stroke="#999" name="PG" data-et="life-line" data-id="PG"></line><g id="root-5" data-et="participant" data-type="participant" data-id="PG"><rect x="1881.5" y="0" fill="#eaeaea" stroke="#666" width="209" height="65" name="PG" rx="3" ry="3" class="actor actor-top"></rect><text x="1986" y="32.5" dominant-baseline="central" alignment-baseline="central" class="actor actor-box" style="text-anchor: middle; font-size: 19.2px; font-weight: 400;"><tspan x="1986" dy="0">password_reset_complete</tspan></text></g></g><g><line id="actor4" x1="1733.5" y1="65" x2="1733.5" y2="1394" class="actor-line 200" stroke-width="0.5px" stroke="#999" name="PC" data-et="life-line" data-id="PC"></line><g id="root-4" data-et="participant" data-type="participant" data-id="PC"><rect x="1635.5" y="0" fill="#eaeaea" stroke="#666" width="196" height="65" name="PC" rx="3" ry="3" class="actor actor-top"></rect><text x="1733.5" y="32.5" dominant-baseline="central" alignment-baseline="central" class="actor actor-box" style="text-anchor: middle; font-size: 19.2px; font-weight: 400;"><tspan x="1733.5" dy="0">password_reset_confirm</tspan></text></g></g><g><line id="actor3" x1="1496.5" y1="65" x2="1496.5" y2="1394" class="actor-line 200" stroke-width="0.5px" stroke="#999" name="DN" data-et="life-line" data-id="DN"></line><g id="root-3" data-et="participant" data-type="participant" data-id="DN"><rect x="1407.5" y="0" fill="#eaeaea" stroke="#666" width="178" height="65" name="DN" rx="3" ry="3" class="actor actor-top"></rect><text x="1496.5" y="32.5" dominant-baseline="central" alignment-baseline="central" class="actor actor-box" style="text-anchor: middle; font-size: 19.2px; font-weight: 400;"><tspan x="1496.5" dy="0">password_reset_done</tspan></text></g></g><g><line id="actor2" x1="1263" y1="65" x2="1263" y2="1394" class="actor-line 200" stroke-width="0.5px" stroke="#999" name="MAIL" data-et="life-line" data-id="MAIL"></line><g id="root-2" data-et="participant" data-type="participant" data-id="MAIL"><rect x="1168.5" y="0" fill="#eaeaea" stroke="#666" width="189" height="65" name="MAIL" rx="3" ry="3" class="actor actor-top"></rect><text x="1263" y="32.5" dominant-baseline="central" alignment-baseline="central" class="actor actor-box" style="text-anchor: middle; font-size: 19.2px; font-weight: 400;"><tspan x="1263" dy="0">Service d'e-mail (SMTP)</tspan></text></g></g><g><line id="actor1" x1="508" y1="65" x2="508" y2="1394" class="actor-line 200" stroke-width="0.5px" stroke="#999" name="PR" data-et="life-line" data-id="PR"></line><g id="root-1" data-et="participant" data-type="participant" data-id="PR"><rect x="363.5" y="0" fill="#eaeaea" stroke="#666" width="289" height="65" name="PR" rx="3" ry="3" class="actor actor-top"></rect><text x="508" y="32.5" dominant-baseline="central" alignment-baseline="central" class="actor actor-box" style="text-anchor: middle; font-size: 19.2px; font-weight: 400;"><tspan x="508" dy="0">password_reset (PasswordResetView)</tspan></text></g></g><g><line id="actor0" x1="75" y1="80" x2="75" y2="1394" class="actor-line 200" stroke-width="0.5px" stroke="#999" name="U" data-et="life-line" data-id="U"></line></g><style>#container{font-size:16.8px;fill:#0f172a;}@keyframes edge-animation-frame{from{stroke-dashoffset:0;}}@keyframes dash{to{stroke-dashoffset:0;}}#container .edge-animation-slow{stroke-dasharray:9,5!important;stroke-dashoffset:900;animation:dash 50s linear infinite;stroke-linecap:round;}#container .edge-animation-fast{stroke-dasharray:9,5!important;stroke-dashoffset:900;animation:dash 20s linear infinite;stroke-linecap:round;}#container .error-icon{fill:#fff7ed;}#container .error-text{fill:#000812;stroke:#000812;}#container .edge-thickness-normal{stroke-width:1px;}#container .edge-thickness-thick{stroke-width:3.5px;}#container .edge-pattern-solid{stroke-dasharray:0;}#container .edge-thickness-invisible{stroke-width:0;fill:none;}#container .edge-pattern-dashed{stroke-dasharray:3;}#container .edge-pattern-dotted{stroke-dasharray:2;}#container .marker{fill:#475569;stroke:#475569;}#container .marker.cross{stroke:#475569;}#container svg{font-size:16.8px;}#container p{margin:0;}#container .actor{stroke:#6366f1;fill:#eef2ff;stroke-width:1;}#container rect.actor.outer-path[data-look="neo"]{filter:drop-shadow( 1px 2px 2px rgba(185,185,185,1));}#container rect.note[data-look="neo"]{stroke:#eab308;fill:#fef9c3;filter:drop-shadow( 1px 2px 2px rgba(185,185,185,1));}#container text.actor&gt;tspan{fill:#0f172a;stroke:none;}#container .actor-line{stroke:#94a3b8;}#container .innerArc{stroke-width:1.5;stroke-dasharray:none;}#container .messageLine0{stroke-width:1.5;stroke-dasharray:none;stroke:#475569;}#container .messageLine1{stroke-width:1.5;stroke-dasharray:2,2;stroke:#475569;}#container [id$="-arrowhead"] path{fill:#475569;stroke:#475569;}#container .sequenceNumber{fill:#ffffff;}#container [id$="-sequencenumber"]{fill:#475569;}#container [id$="-crosshead"] path{fill:#475569;stroke:#475569;}#container .messageText{fill:#0f172a;stroke:none;}#container .labelBox{stroke:#6366f1;fill:#eef2ff;filter:none;}#container .labelText,#container .labelText&gt;tspan{fill:#0f172a;stroke:none;}#container .loopText,#container .loopText&gt;tspan{fill:#0f172a;stroke:none;}#container .sectionTitle,#container .sectionTitle&gt;tspan{fill:#0f172a;stroke:none;}#container .loopLine{stroke-width:2px;stroke-dasharray:2,2;stroke:#6366f1;fill:#6366f1;}#container .note{stroke:#eab308;fill:#fef9c3;}#container .noteText,#container .noteText&gt;tspan{fill:#0f172a;stroke:none;font-weight:normal;}#container .activation0{fill:#c7d2fe;stroke:#6366f1;}#container .activation1{fill:#c7d2fe;stroke:#6366f1;}#container .activation2{fill:#c7d2fe;stroke:#6366f1;}#container .actorPopupMenu{position:absolute;}#container .actorPopupMenuPanel{position:absolute;fill:#eef2ff;box-shadow:0px 8px 16px 0px rgba(0,0,0,0.2);filter:drop-shadow(3px 5px 2px rgb(0 0 0 / 0.4));}#container .actor-man circle,#container line{fill:#eef2ff;stroke-width:2px;}#container g rect.rect{filter:drop-shadow( 1px 2px 2px rgba(185,185,185,1));stroke:#6366f1;}#container .node .neo-node{stroke:#6366f1;}#container [data-look="neo"].node rect,#container [data-look="neo"].cluster rect,#container [data-look="neo"].node polygon{stroke:url(#container-gradient);filter:drop-shadow( 1px 2px 2px rgba(185,185,185,1));}#container [data-look="neo"].swimlane.cluster rect{filter:none;}#container [data-look="neo"].node path{stroke:url(#container-gradient);stroke-width:1px;}#container [data-look="neo"].node .outer-path{filter:drop-shadow( 1px 2px 2px rgba(185,185,185,1));}#container [data-look="neo"].node .neo-line path{stroke:#6366f1;filter:none;}#container [data-look="neo"].node circle{stroke:url(#container-gradient);filter:drop-shadow( 1px 2px 2px rgba(185,185,185,1));}#container [data-look="neo"].node circle .state-start{fill:#000000;}#container [data-look="neo"].icon-shape .icon{fill:url(#container-gradient);filter:drop-shadow( 1px 2px 2px rgba(185,185,185,1));}#container [data-look="neo"].icon-shape .icon-neo path{stroke:url(#container-gradient);filter:drop-shadow( 1px 2px 2px rgba(185,185,185,1));}#container :root{--mermaid-font-family:"trebuchet ms",verdana,arial,sans-serif;}</style><g></g><defs><symbol id="container-computer" width="24" height="24"><path transform="scale(.5)" d="M2 2v13h20v-13h-20zm18 11h-16v-9h16v9zm-10.228 6l.466-1h3.524l.467 1h-4.457zm14.228 3h-24l2-6h2.104l-1.33 4h18.45l-1.297-4h2.073l2 6zm-5-10h-14v-7h14v7z"></path></symbol></defs><defs><symbol id="container-database" fill-rule="evenodd" clip-rule="evenodd"><path transform="scale(.5)" d="M12.258.001l.256.004.255.005.253.008.251.01.249.012.247.015.246.016.242.019.241.02.239.023.236.024.233.027.231.028.229.031.225.032.223.034.22.036.217.038.214.04.211.041.208.043.205.045.201.046.198.048.194.05.191.051.187.053.183.054.18.056.175.057.172.059.168.06.163.061.16.063.155.064.15.066.074.033.073.033.071.034.07.034.069.035.068.035.067.035.066.035.064.036.064.036.062.036.06.036.06.037.058.037.058.037.055.038.055.038.053.038.052.038.051.039.05.039.048.039.047.039.045.04.044.04.043.04.041.04.04.041.039.041.037.041.036.041.034.041.033.042.032.042.03.042.029.042.027.042.026.043.024.043.023.043.021.043.02.043.018.044.017.043.015.044.013.044.012.044.011.045.009.044.007.045.006.045.004.045.002.045.001.045v17l-.001.045-.002.045-.004.045-.006.045-.007.045-.009.044-.011.045-.012.044-.013.044-.015.044-.017.043-.018.044-.02.043-.021.043-.023.043-.024.043-.026.043-.027.042-.029.042-.03.042-.032.042-.033.042-.034.041-.036.041-.037.041-.039.041-.04.041-.041.04-.043.04-.044.04-.045.04-.047.039-.048.039-.05.039-.051.039-.052.038-.053.038-.055.038-.055.038-.058.037-.058.037-.06.037-.06.036-.062.036-.064.036-.064.036-.066.035-.067.035-.068.035-.069.035-.07.034-.071.034-.073.033-.074.033-.15.066-.155.064-.16.063-.163.061-.168.06-.172.059-.175.057-.18.056-.183.054-.187.053-.191.051-.194.05-.198.048-.201.046-.205.045-.208.043-.211.041-.214.04-.217.038-.22.036-.223.034-.225.032-.229.031-.231.028-.233.027-.236.024-.239.023-.241.02-.242.019-.246.016-.247.015-.249.012-.251.01-.253.008-.255.005-.256.004-.258.001-.258-.001-.256-.004-.255-.005-.253-.008-.251-.01-.249-.012-.247-.015-.245-.016-.243-.019-.241-.02-.238-.023-.236-.024-.234-.027-.231-.028-.228-.031-.226-.032-.223-.034-.22-.036-.217-.038-.214-.04-.211-.041-.208-.043-.204-.045-.201-.046-.198-.048-.195-.05-.19-.051-.187-.053-.184-.054-.179-.056-.176-.057-.172-.059-.167-.06-.164-.061-.159-.063-.155-.064-.151-.066-.074-.033-.072-.033-.072-.034-.07-.034-.069-.035-.068-.035-.067-.035-.066-.035-.064-.036-.063-.036-.062-.036-.061-.036-.06-.037-.058-.037-.057-.037-.056-.038-.055-.038-.053-.038-.052-.038-.051-.039-.049-.039-.049-.039-.046-.039-.046-.04-.044-.04-.043-.04-.041-.04-.04-.041-.039-.041-.037-.041-.036-.041-.034-.041-.033-.042-.032-.042-.03-.042-.029-.042-.027-.042-.026-.043-.024-.043-.023-.043-.021-.043-.02-.043-.018-.044-.017-.043-.015-.044-.013-.044-.012-.044-.011-.045-.009-.044-.007-.045-.006-.045-.004-.045-.002-.045-.001-.045v-17l.001-.045.002-.045.004-.045.006-.045.007-.045.009-.044.011-.045.012-.044.013-.044.015-.044.017-.043.018-.044.02-.043.021-.043.023-.043.024-.043.026-.043.027-.042.029-.042.03-.042.032-.042.033-.042.034-.041.036-.041.037-.041.039-.041.04-.041.041-.04.043-.04.044-.04.046-.04.046-.039.049-.039.049-.039.051-.039.052-.038.053-.038.055-.038.056-.038.057-.037.058-.037.06-.037.061-.036.062-.036.063-.036.064-.036.066-.035.067-.035.068-.035.069-.035.07-.034.072-.034.072-.033.074-.033.151-.066.155-.064.159-.063.164-.061.167-.06.172-.059.176-.057.179-.056.184-.054.187-.053.19-.051.195-.05.198-.048.201-.046.204-.045.208-.043.211-.041.214-.04.217-.038.22-.036.223-.034.226-.032.228-.031.231-.028.234-.027.236-.024.238-.023.241-.02.243-.019.245-.016.247-.015.249-.012.251-.01.253-.008.255-.005.256-.004.258-.001.258.001zm-9.258 20.499v.01l.001.021.003.021.004.022.005.021.006.022.007.022.009.023.01.022.011.023.012.023.013.023.015.023.016.024.017.023.018.024.019.024.021.024.022.025.023.024.024.025.052.049.056.05.061.051.066.051.07.051.075.051.079.052.084.052.088.052.092.052.097.052.102.051.105.052.11.052.114.051.119.051.123.051.127.05.131.05.135.05.139.048.144.049.147.047.152.047.155.047.16.045.163.045.167.043.171.043.176.041.178.041.183.039.187.039.19.037.194.035.197.035.202.033.204.031.209.03.212.029.216.027.219.025.222.024.226.021.23.02.233.018.236.016.24.015.243.012.246.01.249.008.253.005.256.004.259.001.26-.001.257-.004.254-.005.25-.008.247-.011.244-.012.241-.014.237-.016.233-.018.231-.021.226-.021.224-.024.22-.026.216-.027.212-.028.21-.031.205-.031.202-.034.198-.034.194-.036.191-.037.187-.039.183-.04.179-.04.175-.042.172-.043.168-.044.163-.045.16-.046.155-.046.152-.047.148-.048.143-.049.139-.049.136-.05.131-.05.126-.05.123-.051.118-.052.114-.051.11-.052.106-.052.101-.052.096-.052.092-.052.088-.053.083-.051.079-.052.074-.052.07-.051.065-.051.06-.051.056-.05.051-.05.023-.024.023-.025.021-.024.02-.024.019-.024.018-.024.017-.024.015-.023.014-.024.013-.023.012-.023.01-.023.01-.022.008-.022.006-.022.006-.022.004-.022.004-.021.001-.021.001-.021v-4.127l-.077.055-.08.053-.083.054-.085.053-.087.052-.09.052-.093.051-.095.05-.097.05-.1.049-.102.049-.105.048-.106.047-.109.047-.111.046-.114.045-.115.045-.118.044-.12.043-.122.042-.124.042-.126.041-.128.04-.13.04-.132.038-.134.038-.135.037-.138.037-.139.035-.142.035-.143.034-.144.033-.147.032-.148.031-.15.03-.151.03-.153.029-.154.027-.156.027-.158.026-.159.025-.161.024-.162.023-.163.022-.165.021-.166.02-.167.019-.169.018-.169.017-.171.016-.173.015-.173.014-.175.013-.175.012-.177.011-.178.01-.179.008-.179.008-.181.006-.182.005-.182.004-.184.003-.184.002h-.37l-.184-.002-.184-.003-.182-.004-.182-.005-.181-.006-.179-.008-.179-.008-.178-.01-.176-.011-.176-.012-.175-.013-.173-.014-.172-.015-.171-.016-.17-.017-.169-.018-.167-.019-.166-.02-.165-.021-.163-.022-.162-.023-.161-.024-.159-.025-.157-.026-.156-.027-.155-.027-.153-.029-.151-.03-.15-.03-.148-.031-.146-.032-.145-.033-.143-.034-.141-.035-.14-.035-.137-.037-.136-.037-.134-.038-.132-.038-.13-.04-.128-.04-.126-.041-.124-.042-.122-.042-.12-.044-.117-.043-.116-.045-.113-.045-.112-.046-.109-.047-.106-.047-.105-.048-.102-.049-.1-.049-.097-.05-.095-.05-.093-.052-.09-.051-.087-.052-.085-.053-.083-.054-.08-.054-.077-.054v4.127zm0-5.654v.011l.001.021.003.021.004.021.005.022.006.022.007.022.009.022.01.022.011.023.012.023.013.023.015.024.016.023.017.024.018.024.019.024.021.024.022.024.023.025.024.024.052.05.056.05.061.05.066.051.07.051.075.052.079.051.084.052.088.052.092.052.097.052.102.052.105.052.11.051.114.051.119.052.123.05.127.051.131.05.135.049.139.049.144.048.147.048.152.047.155.046.16.045.163.045.167.044.171.042.176.042.178.04.183.04.187.038.19.037.194.036.197.034.202.033.204.032.209.03.212.028.216.027.219.025.222.024.226.022.23.02.233.018.236.016.24.014.243.012.246.01.249.008.253.006.256.003.259.001.26-.001.257-.003.254-.006.25-.008.247-.01.244-.012.241-.015.237-.016.233-.018.231-.02.226-.022.224-.024.22-.025.216-.027.212-.029.21-.03.205-.032.202-.033.198-.035.194-.036.191-.037.187-.039.183-.039.179-.041.175-.042.172-.043.168-.044.163-.045.16-.045.155-.047.152-.047.148-.048.143-.048.139-.05.136-.049.131-.05.126-.051.123-.051.118-.051.114-.052.11-.052.106-.052.101-.052.096-.052.092-.052.088-.052.083-.052.079-.052.074-.051.07-.052.065-.051.06-.05.056-.051.051-.049.023-.025.023-.024.021-.025.02-.024.019-.024.018-.024.017-.024.015-.023.014-.023.013-.024.012-.022.01-.023.01-.023.008-.022.006-.022.006-.022.004-.021.004-.022.001-.021.001-.021v-4.139l-.077.054-.08.054-.083.054-.085.052-.087.053-.09.051-.093.051-.095.051-.097.05-.1.049-.102.049-.105.048-.106.047-.109.047-.111.046-.114.045-.115.044-.118.044-.12.044-.122.042-.124.042-.126.041-.128.04-.13.039-.132.039-.134.038-.135.037-.138.036-.139.036-.142.035-.143.033-.144.033-.147.033-.148.031-.15.03-.151.03-.153.028-.154.028-.156.027-.158.026-.159.025-.161.024-.162.023-.163.022-.165.021-.166.02-.167.019-.169.018-.169.017-.171.016-.173.015-.173.014-.175.013-.175.012-.177.011-.178.009-.179.009-.179.007-.181.007-.182.005-.182.004-.184.003-.184.002h-.37l-.184-.002-.184-.003-.182-.004-.182-.005-.181-.007-.179-.007-.179-.009-.178-.009-.176-.011-.176-.012-.175-.013-.173-.014-.172-.015-.171-.016-.17-.017-.169-.018-.167-.019-.166-.02-.165-.021-.163-.022-.162-.023-.161-.024-.159-.025-.157-.026-.156-.027-.155-.028-.153-.028-.151-.03-.15-.03-.148-.031-.146-.033-.145-.033-.143-.033-.141-.035-.14-.036-.137-.036-.136-.037-.134-.038-.132-.039-.13-.039-.128-.04-.126-.041-.124-.042-.122-.043-.12-.043-.117-.044-.116-.044-.113-.046-.112-.046-.109-.046-.106-.047-.105-.048-.102-.049-.1-.049-.097-.05-.095-.051-.093-.051-.09-.051-.087-.053-.085-.052-.083-.054-.08-.054-.077-.054v4.139zm0-5.666v.011l.001.02.003.022.004.021.005.022.006.021.007.022.009.023.01.022.011.023.012.023.013.023.015.023.016.024.017.024.018.023.019.024.021.025.022.024.023.024.024.025.052.05.056.05.061.05.066.051.07.051.075.052.079.051.084.052.088.052.092.052.097.052.102.052.105.051.11.052.114.051.119.051.123.051.127.05.131.05.135.05.139.049.144.048.147.048.152.047.155.046.16.045.163.045.167.043.171.043.176.042.178.04.183.04.187.038.19.037.194.036.197.034.202.033.204.032.209.03.212.028.216.027.219.025.222.024.226.021.23.02.233.018.236.017.24.014.243.012.246.01.249.008.253.006.256.003.259.001.26-.001.257-.003.254-.006.25-.008.247-.01.244-.013.241-.014.237-.016.233-.018.231-.02.226-.022.224-.024.22-.025.216-.027.212-.029.21-.03.205-.032.202-.033.198-.035.194-.036.191-.037.187-.039.183-.039.179-.041.175-.042.172-.043.168-.044.163-.045.16-.045.155-.047.152-.047.148-.048.143-.049.139-.049.136-.049.131-.051.126-.05.123-.051.118-.052.114-.051.11-.052.106-.052.101-.052.096-.052.092-.052.088-.052.083-.052.079-.052.074-.052.07-.051.065-.051.06-.051.056-.05.051-.049.023-.025.023-.025.021-.024.02-.024.019-.024.018-.024.017-.024.015-.023.014-.024.013-.023.012-.023.01-.022.01-.023.008-.022.006-.022.006-.022.004-.022.004-.021.001-.021.001-.021v-4.153l-.077.054-.08.054-.083.053-.085.053-.087.053-.09.051-.093.051-.095.051-.097.05-.1.049-.102.048-.105.048-.106.048-.109.046-.111.046-.114.046-.115.044-.118.044-.12.043-.122.043-.124.042-.126.041-.128.04-.13.039-.132.039-.134.038-.135.037-.138.036-.139.036-.142.034-.143.034-.144.033-.147.032-.148.032-.15.03-.151.03-.153.028-.154.028-.156.027-.158.026-.159.024-.161.024-.162.023-.163.023-.165.021-.166.02-.167.019-.169.018-.169.017-.171.016-.173.015-.173.014-.175.013-.175.012-.177.01-.178.01-.179.009-.179.007-.181.006-.182.006-.182.004-.184.003-.184.001-.185.001-.185-.001-.184-.001-.184-.003-.182-.004-.182-.006-.181-.006-.179-.007-.179-.009-.178-.01-.176-.01-.176-.012-.175-.013-.173-.014-.172-.015-.171-.016-.17-.017-.169-.018-.167-.019-.166-.02-.165-.021-.163-.023-.162-.023-.161-.024-.159-.024-.157-.026-.156-.027-.155-.028-.153-.028-.151-.03-.15-.03-.148-.032-.146-.032-.145-.033-.143-.034-.141-.034-.14-.036-.137-.036-.136-.037-.134-.038-.132-.039-.13-.039-.128-.041-.126-.041-.124-.041-.122-.043-.12-.043-.117-.044-.116-.044-.113-.046-.112-.046-.109-.046-.106-.048-.105-.048-.102-.048-.1-.05-.097-.049-.095-.051-.093-.051-.09-.052-.087-.052-.085-.053-.083-.053-.08-.054-.077-.054v4.153zm8.74-8.179l-.257.004-.254.005-.25.008-.247.011-.244.012-.241.014-.237.016-.233.018-.231.021-.226.022-.224.023-.22.026-.216.027-.212.028-.21.031-.205.032-.202.033-.198.034-.194.036-.191.038-.187.038-.183.04-.179.041-.175.042-.172.043-.168.043-.163.045-.16.046-.155.046-.152.048-.148.048-.143.048-.139.049-.136.05-.131.05-.126.051-.123.051-.118.051-.114.052-.11.052-.106.052-.101.052-.096.052-.092.052-.088.052-.083.052-.079.052-.074.051-.07.052-.065.051-.06.05-.056.05-.051.05-.023.025-.023.024-.021.024-.02.025-.019.024-.018.024-.017.023-.015.024-.014.023-.013.023-.012.023-.01.023-.01.022-.008.022-.006.023-.006.021-.004.022-.004.021-.001.021-.001.021.001.021.001.021.004.021.004.022.006.021.006.023.008.022.01.022.01.023.012.023.013.023.014.023.015.024.017.023.018.024.019.024.02.025.021.024.023.024.023.025.051.05.056.05.06.05.065.051.07.052.074.051.079.052.083.052.088.052.092.052.096.052.101.052.106.052.11.052.114.052.118.051.123.051.126.051.131.05.136.05.139.049.143.048.148.048.152.048.155.046.16.046.163.045.168.043.172.043.175.042.179.041.183.04.187.038.191.038.194.036.198.034.202.033.205.032.21.031.212.028.216.027.22.026.224.023.226.022.231.021.233.018.237.016.241.014.244.012.247.011.25.008.254.005.257.004.26.001.26-.001.257-.004.254-.005.25-.008.247-.011.244-.012.241-.014.237-.016.233-.018.231-.021.226-.022.224-.023.22-.026.216-.027.212-.028.21-.031.205-.032.202-.033.198-.034.194-.036.191-.038.187-.038.183-.04.179-.041.175-.042.172-.043.168-.043.163-.045.16-.046.155-.046.152-.048.148-.048.143-.048.139-.049.136-.05.131-.05.126-.051.123-.051.118-.051.114-.052.11-.052.106-.052.101-.052.096-.052.092-.052.088-.052.083-.052.079-.052.074-.051.07-.052.065-.051.06-.05.056-.05.051-.05.023-.025.023-.024.021-.024.02-.025.019-.024.018-.024.017-.023.015-.024.014-.023.013-.023.012-.023.01-.023.01-.022.008-.022.006-.023.006-.021.004-.022.004-.021.001-.021.001-.021-.001-.021-.001-.021-.004-.021-.004-.022-.006-.021-.006-.023-.008-.022-.01-.022-.01-.023-.012-.023-.013-.023-.014-.023-.015-.024-.017-.023-.018-.024-.019-.024-.02-.025-.021-.024-.023-.024-.023-.025-.051-.05-.056-.05-.06-.05-.065-.051-.07-.052-.074-.051-.079-.052-.083-.052-.088-.052-.092-.052-.096-.052-.101-.052-.106-.052-.11-.052-.114-.052-.118-.051-.123-.051-.126-.051-.131-.05-.136-.05-.139-.049-.143-.048-.148-.048-.152-.048-.155-.046-.16-.046-.163-.045-.168-.043-.172-.043-.175-.042-.179-.041-.183-.04-.187-.038-.191-.038-.194-.036-.198-.034-.202-.033-.205-.032-.21-.031-.212-.028-.216-.027-.22-.026-.224-.023-.226-.022-.231-.021-.233-.018-.237-.016-.241-.014-.244-.012-.247-.011-.25-.008-.254-.005-.257-.004-.26-.001-.26.001z"></path></symbol></defs><defs><symbol id="container-clock" width="24" height="24"><path transform="scale(.5)" d="M12 2c5.514 0 10 4.486 10 10s-4.486 10-10 10-10-4.486-10-10 4.486-10 10-10zm0-2c-6.627 0-12 5.373-12 12s5.373 12 12 12 12-5.373 12-12-5.373-12-12-12zm5.848 12.459c.202.038.202.333.001.372-1.907.361-6.045 1.111-6.547 1.111-.719 0-1.301-.582-1.301-1.301 0-.512.77-5.447 1.125-7.445.034-.192.312-.181.343.014l.985 6.238 5.394 1.011z"></path></symbol></defs><defs><marker id="container-arrowhead" refX="7.9" refY="5" markerUnits="userSpaceOnUse" markerWidth="12" markerHeight="12" orient="auto-start-reverse"><path d="M -1 0 L 10 5 L 0 10 z"></path></marker></defs><defs><marker id="container-crosshead" markerWidth="15" markerHeight="8" orient="auto" refX="4" refY="4.5"><path fill="none" stroke="#000000" stroke-width="1pt" d="M 1,2 L 6,7 M 6,2 L 1,7" style="stroke-dasharray: 0, 0;"></path></marker></defs><defs><marker id="container-filled-head" refX="15.5" refY="7" markerWidth="20" markerHeight="28" orient="auto"><path d="M 18,7 L9,13 L14,7 L9,1 Z"></path></marker></defs><defs><marker id="container-sequencenumber" refX="15" refY="15" markerWidth="60" markerHeight="40" orient="auto"><circle cx="15" cy="15" r="6"></circle></marker></defs><defs><marker id="container-solidTopArrowHead" refX="7.9" refY="7.25" markerUnits="userSpaceOnUse" markerWidth="12" markerHeight="12" orient="auto-start-reverse"><path d="M 0 0 L 10 8 L 0 8 z"></path></marker></defs><defs><marker id="container-solidBottomArrowHead" refX="7.9" refY="0.75" markerUnits="userSpaceOnUse" markerWidth="12" markerHeight="12" orient="auto-start-reverse"><path d="M 0 0 L 10 0 L 0 8 z"></path></marker></defs><defs><marker id="container-stickTopArrowHead" refX="7.5" refY="7" markerUnits="userSpaceOnUse" markerWidth="12" markerHeight="12" orient="auto-start-reverse"><path d="M 0 0 L 7 7" stroke="black" stroke-width="1.5" fill="none"></path></marker></defs><defs><marker id="container-stickBottomArrowHead" refX="7.5" refY="0" markerUnits="userSpaceOnUse" markerWidth="12" markerHeight="12" orient="auto-start-reverse"><path d="M 0 7 L 7 0" stroke="black" stroke-width="1.5" fill="none"></path></marker></defs><g data-et="note" data-id="i1"><rect x="50" y="75" fill="#EDF2AE" stroke="#666" width="2190.5" height="39" class="note"></rect><text x="1145" y="80" text-anchor="middle" dominant-baseline="middle" alignment-baseline="middle" class="noteText" dy="1em" style="font-size: 19.2px; font-weight: 400;"><tspan x="1145">1. Demande</tspan></text></g><g data-et="note" data-id="i10"><rect x="277" y="502" fill="#EDF2AE" stroke="#666" width="462" height="39" class="note"></rect><text x="508" y="507" text-anchor="middle" dominant-baseline="middle" alignment-baseline="middle" class="noteText" dy="1em" style="font-size: 19.2px; font-weight: 400;"><tspan x="508">comportement Django : page identique, aucun compte révélé</tspan></text></g><g data-et="control-structure" data-id="i11"><line x1="64" y1="316" x2="1274" y2="316" class="loopLine"></line><line x1="1274" y1="316" x2="1274" y2="551" class="loopLine"></line><line x1="64" y1="551" x2="1274" y2="551" class="loopLine"></line><line x1="64" y1="316" x2="64" y2="551" class="loopLine"></line><line x1="64" y1="462" x2="1274" y2="462" class="loopLine" style="stroke-dasharray: 3, 3;"></line><polygon points="64,316 114,316 114,329 105.6,336 64,336" class="labelBox"></polygon><text x="89" y="329" text-anchor="middle" dominant-baseline="middle" alignment-baseline="middle" class="labelText" style="font-size: 19.2px; font-weight: 400;">alt</text><text x="694" y="334" text-anchor="middle" class="loopText" style="font-size: 19.2px; font-weight: 400;"><tspan x="694">[compte trouvé]</tspan></text><text x="669" y="480" text-anchor="middle" class="sectionTitle" style="font-size: 19.2px; font-weight: 400;">[adresse inconnue]</text></g><g data-et="note" data-id="i13"><rect x="50" y="609" fill="#EDF2AE" stroke="#666" width="2190.5" height="39" class="note"></rect><text x="1145" y="614" text-anchor="middle" dominant-baseline="middle" alignment-baseline="middle" class="noteText" dy="1em" style="font-size: 19.2px; font-weight: 400;"><tspan x="1145">2. Confirmation d'envoi</tspan></text></g><g data-et="note" data-id="i16"><rect x="50" y="754" fill="#EDF2AE" stroke="#666" width="2190.5" height="39" class="note"></rect><text x="1145" y="759" text-anchor="middle" dominant-baseline="middle" alignment-baseline="middle" class="noteText" dy="1em" style="font-size: 19.2px; font-weight: 400;"><tspan x="1145">3. Choix du nouveau mot de passe</tspan></text></g><g data-et="control-structure" data-id="i26"><line x1="64" y1="899" x2="2226.5" y2="899" class="loopLine"></line><line x1="2226.5" y1="899" x2="2226.5" y2="1229" class="loopLine"></line><line x1="64" y1="1229" x2="2226.5" y2="1229" class="loopLine"></line><line x1="64" y1="899" x2="64" y2="1229" class="loopLine"></line><line x1="64" y1="997" x2="2226.5" y2="997" class="loopLine" style="stroke-dasharray: 3, 3;"></line><polygon points="64,899 114,899 114,912 105.6,919 64,919" class="labelBox"></polygon><text x="89" y="912" text-anchor="middle" dominant-baseline="middle" alignment-baseline="middle" class="labelText" style="font-size: 19.2px; font-weight: 400;">alt</text><text x="1170.25" y="917" text-anchor="middle" class="loopText" style="font-size: 19.2px; font-weight: 400;"><tspan x="1170.25">[lien invalide ou expiré]</tspan></text><text x="1145.25" y="1015" text-anchor="middle" class="sectionTitle" style="font-size: 19.2px; font-weight: 400;">[lien valide]</text></g><g data-et="note" data-id="i27"><rect x="50" y="1239" fill="#EDF2AE" stroke="#666" width="2190.5" height="39" class="note"></rect><text x="1145" y="1244" text-anchor="middle" dominant-baseline="middle" alignment-baseline="middle" class="noteText" dy="1em" style="font-size: 19.2px; font-weight: 400;"><tspan x="1145">4. Finalisation</tspan></text></g><g class="actor-man actor-top" name="U" data-et="participant" data-type="actor" data-id="U" style="stroke: rgb(99, 102, 241);"><line id="actor-man-torso0" x1="75" y1="25" x2="75" y2="45"></line><line id="actor-man-arms0" x1="57" y1="33" x2="93" y2="33"></line><line x1="57" y1="60" x2="75" y2="45"></line><line x1="75" y1="45" x2="91" y2="60"></line><circle cx="75" cy="10" r="15" width="150" height="65"></circle><text x="75" y="67.5" dominant-baseline="central" alignment-baseline="central" class="actor actor-man" style="text-anchor: middle; font-size: 19.2px; font-weight: 400;"><tspan x="75" dy="0">Utilisateur</tspan></text></g><text x="290" y="129" text-anchor="middle" dominant-baseline="middle" alignment-baseline="middle" class="messageText" dy="1em" style="font-size: 19.2px; font-weight: 400;">GET /compte/oublie/</text><line x1="82" y1="162" x2="504" y2="162" class="messageLine0" data-et="message" data-id="i2" data-from="U" data-to="PR" stroke-width="2" stroke="none" marker-end="url(#container-arrowhead)" style="fill: none;"></line><line x1="75" y1="162" x2="75" y2="162" stroke-width="0" marker-start="url(#container-sequencenumber)"></line><text x="75" y="166" font-family="sans-serif" font-size="14.4px" text-anchor="middle" class="sequenceNumber">1</text><text x="293" y="177" text-anchor="middle" dominant-baseline="middle" alignment-baseline="middle" class="messageText" dy="1em" style="font-size: 19.2px; font-weight: 400;">200 auth/password_reset.html (formulaire e-mail)</text><line x1="513" y1="210" x2="79" y2="210" class="messageLine1" data-et="message" data-id="i3" data-from="PR" data-to="U" stroke-width="2" stroke="none" marker-end="url(#container-arrowhead)" style="stroke-dasharray: 3, 3; fill: none;"></line><line x1="508" y1="210" x2="508" y2="210" stroke-width="0" marker-start="url(#container-sequencenumber)"></line><text x="508" y="214" font-family="sans-serif" font-size="14.4px" text-anchor="middle" class="sequenceNumber">2</text><text x="290" y="225" text-anchor="middle" dominant-baseline="middle" alignment-baseline="middle" class="messageText" dy="1em" style="font-size: 19.2px; font-weight: 400;">POST {email}</text><line x1="82" y1="258" x2="504" y2="258" class="messageLine0" data-et="message" data-id="i4" data-from="U" data-to="PR" stroke-width="2" stroke="none" marker-end="url(#container-arrowhead)" style="fill: none;"></line><line x1="75" y1="258" x2="75" y2="258" stroke-width="0" marker-start="url(#container-sequencenumber)"></line><text x="75" y="262" font-family="sans-serif" font-size="14.4px" text-anchor="middle" class="sequenceNumber">3</text><text x="1360" y="273" text-anchor="middle" dominant-baseline="middle" alignment-baseline="middle" class="messageText" dy="1em" style="font-size: 19.2px; font-weight: 400;">recherche les comptes à cette adresse (User.email)</text><line x1="515" y1="306" x2="2211.5" y2="306" class="messageLine0" data-et="message" data-id="i5" data-from="PR" data-to="DB" stroke-width="2" stroke="none" marker-end="url(#container-arrowhead)" style="fill: none;"></line><line x1="508" y1="306" x2="508" y2="306" stroke-width="0" marker-start="url(#container-sequencenumber)"></line><text x="508" y="310" font-family="sans-serif" font-size="14.4px" text-anchor="middle" class="sequenceNumber">4</text><text x="884" y="366" text-anchor="middle" dominant-baseline="middle" alignment-baseline="middle" class="messageText" dy="1em" style="font-size: 19.2px; font-weight: 400;">PasswordResetEmail — templates auth/password_reset_email.txt + password_reset_subject.txt</text><line x1="515" y1="399" x2="1259" y2="399" class="messageLine0" data-et="message" data-id="i7" data-from="PR" data-to="MAIL" stroke-width="2" stroke="none" marker-end="url(#container-arrowhead)" style="fill: none;"></line><line x1="508" y1="399" x2="508" y2="399" stroke-width="0" marker-start="url(#container-sequencenumber)"></line><text x="508" y="403" font-family="sans-serif" font-size="14.4px" text-anchor="middle" class="sequenceNumber">5</text><text x="671" y="414" text-anchor="middle" dominant-baseline="middle" alignment-baseline="middle" class="messageText" dy="1em" style="font-size: 19.2px; font-weight: 400;">e-mail contenant le lien signé uidb64 + token</text><line x1="1268" y1="447" x2="79" y2="447" class="messageLine1" data-et="message" data-id="i8" data-from="MAIL" data-to="U" stroke-width="2" stroke="none" marker-end="url(#container-arrowhead)" style="stroke-dasharray: 3, 3; fill: none;"></line><line x1="1263" y1="447" x2="1263" y2="447" stroke-width="0" marker-start="url(#container-sequencenumber)"></line><text x="1263" y="451" font-family="sans-serif" font-size="14.4px" text-anchor="middle" class="sequenceNumber">6</text><text x="293" y="566" text-anchor="middle" dominant-baseline="middle" alignment-baseline="middle" class="messageText" dy="1em" style="font-size: 19.2px; font-weight: 400;">302 vers /compte/oublie/envoye/</text><line x1="513" y1="599" x2="79" y2="599" class="messageLine1" data-et="message" data-id="i12" data-from="PR" data-to="U" stroke-width="2" stroke="none" marker-end="url(#container-arrowhead)" style="stroke-dasharray: 3, 3; fill: none;"></line><line x1="508" y1="599" x2="508" y2="599" stroke-width="0" marker-start="url(#container-sequencenumber)"></line><text x="508" y="603" font-family="sans-serif" font-size="14.4px" text-anchor="middle" class="sequenceNumber">7</text><text x="784" y="663" text-anchor="middle" dominant-baseline="middle" alignment-baseline="middle" class="messageText" dy="1em" style="font-size: 19.2px; font-weight: 400;">GET /compte/oublie/envoye/</text><line x1="82" y1="696" x2="1492.5" y2="696" class="messageLine0" data-et="message" data-id="i14" data-from="U" data-to="DN" stroke-width="2" stroke="none" marker-end="url(#container-arrowhead)" style="fill: none;"></line><line x1="75" y1="696" x2="75" y2="696" stroke-width="0" marker-start="url(#container-sequencenumber)"></line><text x="75" y="700" font-family="sans-serif" font-size="14.4px" text-anchor="middle" class="sequenceNumber">8</text><text x="787" y="711" text-anchor="middle" dominant-baseline="middle" alignment-baseline="middle" class="messageText" dy="1em" style="font-size: 19.2px; font-weight: 400;">200 auth/password_reset_done.html</text><line x1="1501.5" y1="744" x2="79" y2="744" class="messageLine1" data-et="message" data-id="i15" data-from="DN" data-to="U" stroke-width="2" stroke="none" marker-end="url(#container-arrowhead)" style="stroke-dasharray: 3, 3; fill: none;"></line><line x1="1496.5" y1="744" x2="1496.5" y2="744" stroke-width="0" marker-start="url(#container-sequencenumber)"></line><text x="1496.5" y="748" font-family="sans-serif" font-size="14.4px" text-anchor="middle" class="sequenceNumber">9</text><text x="903" y="808" text-anchor="middle" dominant-baseline="middle" alignment-baseline="middle" class="messageText" dy="1em" style="font-size: 19.2px; font-weight: 400;">GET /compte/oublie/[uidb64]/[token]/</text><line x1="82" y1="841" x2="1729.5" y2="841" class="messageLine0" data-et="message" data-id="i17" data-from="U" data-to="PC" stroke-width="2" stroke="none" marker-end="url(#container-arrowhead)" style="fill: none;"></line><line x1="75" y1="841" x2="75" y2="841" stroke-width="0" marker-start="url(#container-sequencenumber)"></line><text x="75" y="845" font-family="sans-serif" font-size="14.4px" text-anchor="middle" class="sequenceNumber">10</text><text x="1973" y="856" text-anchor="middle" dominant-baseline="middle" alignment-baseline="middle" class="messageText" dy="1em" style="font-size: 19.2px; font-weight: 400;">décode l'identifiant, vérifie le jeton (et le lien interne à la session)</text><line x1="1740.5" y1="889" x2="2211.5" y2="889" class="messageLine0" data-et="message" data-id="i18" data-from="PC" data-to="DB" stroke-width="2" stroke="none" marker-end="url(#container-arrowhead)" style="fill: none;"></line><line x1="1733.5" y1="889" x2="1733.5" y2="889" stroke-width="0" marker-start="url(#container-sequencenumber)"></line><text x="1733.5" y="893" font-family="sans-serif" font-size="14.4px" text-anchor="middle" class="sequenceNumber">11</text><text x="906" y="949" text-anchor="middle" dominant-baseline="middle" alignment-baseline="middle" class="messageText" dy="1em" style="font-size: 19.2px; font-weight: 400;">200 auth/password_reset_confirm.html — bloc « Ce lien de réinitialisation n'est plus valide »</text><line x1="1738.5" y1="982" x2="79" y2="982" class="messageLine1" data-et="message" data-id="i20" data-from="PC" data-to="U" stroke-width="2" stroke="none" marker-end="url(#container-arrowhead)" style="stroke-dasharray: 3, 3; fill: none;"></line><line x1="1733.5" y1="982" x2="1733.5" y2="982" stroke-width="0" marker-start="url(#container-sequencenumber)"></line><text x="1733.5" y="986" font-family="sans-serif" font-size="14.4px" text-anchor="middle" class="sequenceNumber">12</text><text x="906" y="1042" text-anchor="middle" dominant-baseline="middle" alignment-baseline="middle" class="messageText" dy="1em" style="font-size: 19.2px; font-weight: 400;">200 formulaire « Nouveau mot de passe » (et demande de confirmation)</text><line x1="1738.5" y1="1075" x2="79" y2="1075" class="messageLine1" data-et="message" data-id="i22" data-from="PC" data-to="U" stroke-width="2" stroke="none" marker-end="url(#container-arrowhead)" style="stroke-dasharray: 3, 3; fill: none;"></line><line x1="1733.5" y1="1075" x2="1733.5" y2="1075" stroke-width="0" marker-start="url(#container-sequencenumber)"></line><text x="1733.5" y="1079" font-family="sans-serif" font-size="14.4px" text-anchor="middle" class="sequenceNumber">13</text><text x="903" y="1090" text-anchor="middle" dominant-baseline="middle" alignment-baseline="middle" class="messageText" dy="1em" style="font-size: 19.2px; font-weight: 400;">POST {new_password1, new_password2}</text><line x1="82" y1="1123" x2="1729.5" y2="1123" class="messageLine0" data-et="message" data-id="i23" data-from="U" data-to="PC" stroke-width="2" stroke="none" marker-end="url(#container-arrowhead)" style="fill: none;"></line><line x1="75" y1="1123" x2="75" y2="1123" stroke-width="0" marker-start="url(#container-sequencenumber)"></line><text x="75" y="1127" font-family="sans-serif" font-size="14.4px" text-anchor="middle" class="sequenceNumber">14</text><text x="1973" y="1138" text-anchor="middle" dominant-baseline="middle" alignment-baseline="middle" class="messageText" dy="1em" style="font-size: 19.2px; font-weight: 400;">user.set_password(...) + save() — jeton consommé</text><line x1="1740.5" y1="1171" x2="2211.5" y2="1171" class="messageLine0" data-et="message" data-id="i24" data-from="PC" data-to="DB" stroke-width="2" stroke="none" marker-end="url(#container-arrowhead)" style="fill: none;"></line><line x1="1733.5" y1="1171" x2="1733.5" y2="1171" stroke-width="0" marker-start="url(#container-sequencenumber)"></line><text x="1733.5" y="1175" font-family="sans-serif" font-size="14.4px" text-anchor="middle" class="sequenceNumber">15</text><text x="906" y="1186" text-anchor="middle" dominant-baseline="middle" alignment-baseline="middle" class="messageText" dy="1em" style="font-size: 19.2px; font-weight: 400;">302 vers /compte/oublie/termine/</text><line x1="1738.5" y1="1219" x2="79" y2="1219" class="messageLine1" data-et="message" data-id="i25" data-from="PC" data-to="U" stroke-width="2" stroke="none" marker-end="url(#container-arrowhead)" style="stroke-dasharray: 3, 3; fill: none;"></line><line x1="1733.5" y1="1219" x2="1733.5" y2="1219" stroke-width="0" marker-start="url(#container-sequencenumber)"></line><text x="1733.5" y="1223" font-family="sans-serif" font-size="14.4px" text-anchor="middle" class="sequenceNumber">16</text><text x="1029" y="1293" text-anchor="middle" dominant-baseline="middle" alignment-baseline="middle" class="messageText" dy="1em" style="font-size: 19.2px; font-weight: 400;">GET /compte/oublie/termine/</text><line x1="82" y1="1326" x2="1982" y2="1326" class="messageLine0" data-et="message" data-id="i28" data-from="U" data-to="PG" stroke-width="2" stroke="none" marker-end="url(#container-arrowhead)" style="fill: none;"></line><line x1="75" y1="1326" x2="75" y2="1326" stroke-width="0" marker-start="url(#container-sequencenumber)"></line><text x="75" y="1330" font-family="sans-serif" font-size="14.4px" text-anchor="middle" class="sequenceNumber">17</text><text x="1032" y="1341" text-anchor="middle" dominant-baseline="middle" alignment-baseline="middle" class="messageText" dy="1em" style="font-size: 19.2px; font-weight: 400;">200 auth/password_reset_complete.html + lien de connexion</text><line x1="1991" y1="1374" x2="79" y2="1374" class="messageLine1" data-et="message" data-id="i29" data-from="PG" data-to="U" stroke-width="2" stroke="none" marker-end="url(#container-arrowhead)" style="stroke-dasharray: 3, 3; fill: none;"></line><line x1="1986" y1="1374" x2="1986" y2="1374" stroke-width="0" marker-start="url(#container-sequencenumber)"></line><text x="1986" y="1378" font-family="sans-serif" font-size="14.4px" text-anchor="middle" class="sequenceNumber">18</text><g class="actor-man actor-bottom" name="U" style="stroke: rgb(99, 102, 241);"><line id="actor-man-torso6" x1="75" y1="1419" x2="75" y2="1439"></line><line id="actor-man-arms6" x1="57" y1="1427" x2="93" y2="1427"></line><line x1="57" y1="1454" x2="75" y2="1439"></line><line x1="75" y1="1439" x2="91" y2="1454"></line><circle cx="75" cy="1404" r="15" width="150" height="65"></circle><text x="75" y="1461.5" dominant-baseline="central" alignment-baseline="central" class="actor actor-man" style="text-anchor: middle; font-size: 19.2px; font-weight: 400;"><tspan x="75" dy="0">Utilisateur</tspan></text></g></svg>